<svg xmlns="http://www.w3.org/2000/svg" width="96.111" height="74.675" viewBox="0 0 96.111 74.675">
  <g id="Group_96" data-name="Group 96" transform="translate(-499.079 -330.351)">
    <path id="Path_149" data-name="Path 149" d="M591.711,332.326c-3.442-2.945-8.119-2.073-12.051-.743-9.147,3.094-17.33,8.5-26.084,12.508a.881.881,0,0,0-.312.131c-.02.013-.042.024-.063.037-.49.222-.98.442-1.474.654-.093.04-1.551.477-1.7.494a93.278,93.278,0,0,1-12.547.631c-3.465-.093-6.96-.472-10.424-.413-3.65.063-7.289.751-10.943.9-2.078.084-6.56-.115-7.612,2.352-.692,1.622.761,3.354,2.02,4.2,1.922,1.288,4.732.793,6.922.72,3.433-.113,6.8-.552,10.211.063a42.1,42.1,0,0,0,4.232.51c-3.278,1.286-6.589,2.507-9.8,3.834-6.442,2.657-12.506,5.674-18.683,8.855-4.281,2.2-2.1,6.909,2.327,6.347,5.57-.707,10.733-3.338,16.06-5.182-3.222,2.128-6.441,4.3-9.484,6.655a38.075,38.075,0,0,1-5.815,3.939c-1.42.735-4.215,1.527-4.892,3.157-.818,1.967,1.174,4.714,3.155,5.015,3.762.572,8.964-2.495,12.181-4.19,3.777-1.99,7.632-3.8,11.424-5.751,2.211-1.137,4.357-2.4,6.518-3.636-3.123,3.1-6.356,6.094-9.433,9.244-2.881,2.95-5.595,6.043-8.316,9.117-1.58,1.784-2.157,3.548-.369,5.153,3.834,4.328,13.688-5.225,16.32-7.422,3.764-3.142,7.978-6.094,12-8.9,3.809-2.658,7.342-5.65,11.6-7.581,2.642-1.2,6.641-1.5,8.386,1.333,1.347,2.19-.043,4.94-1.279,6.854-1.975,3.058-3.974,5.933-5.17,9.412-1.325,3.86-1.4,16.85,5.627,11.9,2.693-1.9,3.957-5.542,5.436-8.341a56.145,56.145,0,0,1,5.638-8.8c2.545-3.241,5.313-6.273,8.138-9.27a33.39,33.39,0,0,0,5.767-9.421,65.137,65.137,0,0,0,5.924-22.83C595.363,339.892,594.929,335.079,591.711,332.326Zm-56.823,20.457c-4.287-.238-8.594-1.341-12.885-1.08-2.186.133-4.349.288-6.541.349-1.512.042-3.665.246-4.682-1.156-1.648-2.274,2.809-2.481,4.187-2.559,5.653-.32,11.208-1.084,16.869-.707a101.1,101.1,0,0,0,14.366-.1c-.165.088-.33.177-.5.262-2.062,1.055-4.113,2.156-6.131,3.294A34.655,34.655,0,0,1,534.888,352.783Zm58.474-8.926a64.624,64.624,0,0,1-5.681,21.932,30.921,30.921,0,0,1-5.49,9.061c-2.42,2.546-4.849,5.136-7.055,7.871a58.006,58.006,0,0,0-4.886,6.442c-1.584,2.659-2.889,5.567-4.319,8.312-.669,1.282-1.792,3.556-3.348,3.985-3.353.925-3.111-5.162-2.99-6.827.265-3.636,2.1-7.156,4.1-10.114,2.355-3.477,6.14-9.188,1.563-12.642-5.637-4.252-12.683.925-17.147,4.428-3.653,2.865-7.532,5.633-11.338,8.3-3.451,2.417-6.467,5.378-9.918,7.756a24.881,24.881,0,0,1-5.4,3.155c-1.093.4-4.28,1.489-3.732-1.6a10.421,10.421,0,0,1,1.867-2.037c1.253-1.258,2.126-2.761,3.322-4.061,2.588-2.812,5.419-5.407,8.088-8.141,2.988-3.061,6.052-5.967,8.943-9.045a.765.765,0,0,0,.171-.181,67.586,67.586,0,0,0,5.6-6.726c.668-.932-.874-1.821-1.536-.9a68.107,68.107,0,0,1-5.2,6.332c-.029.011-.057.019-.086.033-6.144,3.078-11.974,6.638-18.178,9.593-3.954,1.883-7.656,4.216-11.84,5.618-1.3.434-7.557,1.754-4.9-2.281.715-1.083,3.707-1.78,4.875-2.486,3.594-2.175,6.788-5.046,10.312-7.352,3.209-2.1,6.28-4.393,9.516-6.46,2.793-1.784,5.681-3.389,8.5-5.142,2.505-1.56,4.191-4.228,6.644-5.792.293-.051.713-.695.729-.744a.9.9,0,0,0-1.307-1,21.789,21.789,0,0,0-3.958,3.554,23.341,23.341,0,0,1-4.6,3.426c-2.751,1.619-5.443,3.267-8.118,4.975a.943.943,0,0,0-.293.01c-5.749,1.156-11.2,3.79-16.806,5.5-1.562.476-3.387,1.4-5.05.99-3.209-.784-.84-2.681.755-3.386,2.2-.97,4.131-2.262,6.235-3.4,9.042-4.88,28.6-11.936,28.69-11.985.109-.062,4.771-2.611,6.5-3.5,2.416-1.24,20.556-10.37,27.256-13.351,3.915-1.742,7.93-3.869,12.337-3.872C592.467,332.1,593.632,338.923,593.362,343.857Z" fill="#313131"/>
    <path id="Path_150" data-name="Path 150" d="M568.153,397.268c-.743-1.51-4.724-3.939-6.222-2.609a11.81,11.81,0,0,0-3.3,7c-.31,2.773,2.427,4.232,4.7,2.822C565.42,403.189,568.281,397.528,568.153,397.268Z" fill="#a191b2"/>
    <path id="Path_151" data-name="Path 151" d="M522.852,390.543a4.213,4.213,0,0,0-2.818-1.988c-.407-.106-5.326,3.9-6,6.16a2.312,2.312,0,0,0,3.01,2.979c1.981-.774,3.72-2.729,5.063-4.307A2.571,2.571,0,0,0,522.852,390.543Z" fill="#a191b2"/>
    <path id="Path_152" data-name="Path 152" d="M507.518,378.247c-.25-.27-6.9,3.506-7.459,3.9-1.593,1.112-.359,3.627,1.843,3.943a8.149,8.149,0,0,0,6.377-2.469C509.625,382.049,509.505,379.3,507.518,378.247Z" fill="#a191b2"/>
    <path id="Path_153" data-name="Path 153" d="M508.115,367.773a5.9,5.9,0,0,0-1.6-2.31c-.1-.1-6.367,2.36-6.99,3.378a2.775,2.775,0,0,0,2.5,4.282c1.85-.077,3.849-1.506,5.262-2.612A2.116,2.116,0,0,0,508.115,367.773Z" fill="#a191b2"/>
    <path id="Path_154" data-name="Path 154" d="M515.169,346.408a42.933,42.933,0,0,0-5.1.378c-.857.164-2.762.389-3.2,1.344a.935.935,0,0,0,.139,1.078c.568.649,1.507.479,2.276.38,1.333-.172,2.626-.538,3.964-.69a3.785,3.785,0,0,0,1.794-.357C515.329,348.335,516.027,346.357,515.169,346.408Z" fill="#a191b2"/>
  </g>
</svg>
