<svg xmlns="http://www.w3.org/2000/svg" width="83.476" height="90.724" viewBox="0 0 83.476 90.724">
  <g id="Group_107" data-name="Group 107" transform="translate(-827.895 -314.387)">
    <g id="Group_97" data-name="Group 97">
      <path id="Path_155" data-name="Path 155" d="M904.892,405.111H834.374a6.486,6.486,0,0,1-6.479-6.479V351.307a6.486,6.486,0,0,1,6.479-6.479h18.264a.75.75,0,0,1,0,1.5H834.374a4.984,4.984,0,0,0-4.979,4.979v47.325a4.985,4.985,0,0,0,4.979,4.979h70.518a4.985,4.985,0,0,0,4.979-4.979V351.307a4.985,4.985,0,0,0-4.979-4.979H894.626a.75.75,0,0,1,0-1.5h10.266a6.486,6.486,0,0,1,6.479,6.479v47.325A6.487,6.487,0,0,1,904.892,405.111Z" fill="#313131"/>
    </g>
    <g id="Group_98" data-name="Group 98">
      <path id="Path_156" data-name="Path 156" d="M892.026,405.111a.75.75,0,0,1-.75-.75V351.776a.75.75,0,0,1,1.5,0v52.585A.75.75,0,0,1,892.026,405.111Z" fill="#313131"/>
    </g>
    <g id="Group_99" data-name="Group 99">
      <path id="Path_157" data-name="Path 157" d="M910.621,378.818H892.026a.75.75,0,0,1,0-1.5h18.595a.75.75,0,0,1,0,1.5Z" fill="#313131"/>
    </g>
    <g id="Group_100" data-name="Group 100">
      <path id="Path_158" data-name="Path 158" d="M892.026,392.914H861.435a.75.75,0,0,1,0-1.5h30.591a.75.75,0,0,1,0,1.5Z" fill="#313131"/>
    </g>
    <g id="Group_101" data-name="Group 101">
      <path id="Path_159" data-name="Path 159" d="M861.435,405.111a.75.75,0,0,1-.75-.75V382.6a.747.747,0,0,1,.22-.53l5.948-5.949a.75.75,0,1,1,1.061,1.061l-5.729,5.728v21.448A.75.75,0,0,1,861.435,405.111Z" fill="#313131"/>
    </g>
    <g id="Group_102" data-name="Group 102">
      <path id="Path_160" data-name="Path 160" d="M884.229,364.323a.751.751,0,0,1-.531-1.281l7.8-7.8a.75.75,0,1,1,1.06,1.06l-7.8,7.8A.752.752,0,0,1,884.229,364.323Z" fill="#313131"/>
    </g>
    <g id="Group_103" data-name="Group 103">
      <path id="Path_161" data-name="Path 161" d="M861.435,384.917h-32.79a.75.75,0,0,1,0-1.5h32.79a.75.75,0,0,1,0,1.5Z" fill="#313131"/>
    </g>
    <g id="Group_104" data-name="Group 104">
      <path id="Path_162" data-name="Path 162" d="M861.435,362.723h-32.79a.75.75,0,0,1,0-1.5h32.79a.75.75,0,0,1,0,1.5Z" fill="#313131"/>
    </g>
    <g id="Group_105" data-name="Group 105">
      <path id="Path_163" data-name="Path 163" d="M845.04,384.917a.75.75,0,0,1-.75-.75V361.973a.75.75,0,0,1,1.5,0v22.194A.75.75,0,0,1,845.04,384.917Z" fill="#313131"/>
    </g>
    <g id="Group_106" data-name="Group 106">
      <path id="Path_164" data-name="Path 164" d="M873.032,314.387a18.2,18.2,0,0,0-18.2,18.2c0,13,18.2,37.789,18.2,37.789s18.194-24.793,18.194-37.789A18.2,18.2,0,0,0,873.032,314.387Zm0,25.393a7.2,7.2,0,1,1,7.2-7.2A7.2,7.2,0,0,1,873.032,339.78Z" fill="#a191b2"/>
    </g>
  </g>
</svg>
