<svg xmlns="http://www.w3.org/2000/svg" width="70.742" height="98.322" viewBox="0 0 70.742 98.322">
  <g id="Group_111" data-name="Group 111" transform="translate(-359.677 -315.142)">
    <path id="Path_165" data-name="Path 165" d="M428,349.023a43.124,43.124,0,0,0-8.078-23.067,23.252,23.252,0,0,0-6.424-6.407c-3.672-2.278-7.868-3.129-12.066-3.852a14.338,14.338,0,0,0-1.5-.426,16.78,16.78,0,0,0-3.248-.1,35.23,35.23,0,0,0-4.147.445.951.951,0,0,0-.408-.018c-4.383.747-8.791,1.57-12.625,3.949a23.242,23.242,0,0,0-6.425,6.407A43.124,43.124,0,0,0,365,349.023a68.587,68.587,0,0,0,3.328,25.59c2.038,6.21,4.072,12.428,7.138,18.164a9.87,9.87,0,0,1,1.134-1.242c.031-.041.063-.081.1-.122-.117-.22-.234-.441-.35-.665-2.295-4.459-3.467-9.141-5.2-13.8a80.313,80.313,0,0,1-3.8-13.346c-1.818-9.706-1.07-21.785,3.59-30.639a37.905,37.905,0,0,1,7.106-10.13c3.584-3.376,8.588-4.474,13.319-5.3a.952.952,0,0,0,.33.009,38.039,38.039,0,0,1,5.61-.589,47.365,47.365,0,0,1,4.727.648c4.616.821,9.448,1.949,12.936,5.234a37.9,37.9,0,0,1,7.105,10.13c4.66,8.854,5.408,20.933,3.59,30.639a80.219,80.219,0,0,1-3.8,13.346c-1.738,4.66-2.91,9.342-5.205,13.8-2.476,4.81-5.357,8.918-9.875,11.936-2.657,1.775-6.632,5.684-10.28,5.816-3.648-.132-7.623-4.041-10.281-5.816a26.03,26.03,0,0,1-7.217-7.379c-.389.485-.776.971-1.166,1.454.356.542.721,1.081,1.105,1.611,2.481,3.429,5.7,5.443,9.127,7.821a30.42,30.42,0,0,0,5.662,3.4.922.922,0,0,0,.4.307,7.959,7.959,0,0,0,4.733,0,.917.917,0,0,0,.4-.307,30.387,30.387,0,0,0,5.662-3.4c3.423-2.378,6.646-4.392,9.128-7.821,5.178-7.153,7.891-15.463,10.613-23.757A68.586,68.586,0,0,0,428,349.023Z" fill="#313131"/>
    <path id="Path_166" data-name="Path 166" d="M417.854,370.125a1.365,1.365,0,0,0-.157-.091c-.01-.006-.065-.039-.089-.052-.034-.029-.132-.1-.145-.115-.08-.064-.156-.12-.206-.161-.139-.111-.283-.219-.419-.333l-.03-.03c.344-.325.682-.68,1.035-1.057a.89.89,0,0,0-1.258-1.258l-.206.2c-.01.01-.017.022-.027.032-1.506,1.549-2.821,2.316-5.193,1.94-1.984-.315-3.906-.84-5.9-1.118-1.12-.156-1.6,1.558-.473,1.716,2.1.293,4.317,1.068,6.492,1.288a1.252,1.252,0,0,1,.016.134.774.774,0,0,0-.014.134c0,.194,0,.388,0,.582a.889.889,0,0,0,1.779,0c0-.194,0-.388,0-.582,0-.078.006-.157,0-.236.034,0,.068,0,.1-.006a5.314,5.314,0,0,0,2.18-.664.725.725,0,0,0,.205.162c-.1-.049.03.012.074.049s.2.156.2.157c.08.064.265.217.386.31.208.16.5.351.746.531a.9.9,0,0,0,1.217-.319A.909.909,0,0,0,417.854,370.125Z" fill="#313131"/>
    <path id="Path_167" data-name="Path 167" d="M376.719,370.125a1.365,1.365,0,0,1,.157-.091c.009-.006.065-.039.089-.052.034-.029.131-.1.145-.115.079-.064.156-.12.206-.161.138-.111.283-.219.419-.333l.03-.03c-.344-.325-.682-.68-1.035-1.057a.89.89,0,0,1,1.258-1.258l.206.2c.01.01.016.022.026.032,1.507,1.549,2.821,2.316,5.194,1.94,1.984-.315,3.9-.84,5.9-1.118,1.12-.156,1.6,1.558.473,1.716-2.1.293-4.318,1.068-6.492,1.288-.008.045-.013.09-.017.134a.672.672,0,0,1,.015.134c0,.194,0,.388,0,.582a.89.89,0,0,1-1.78,0c0-.194,0-.388,0-.582,0-.078-.006-.157,0-.236-.034,0-.069,0-.1-.006a5.314,5.314,0,0,1-2.179-.664.738.738,0,0,1-.205.162c.1-.049-.03.012-.074.049s-.2.156-.2.157c-.08.064-.266.217-.386.31-.208.16-.5.351-.746.531a.9.9,0,0,1-1.218-.319A.91.91,0,0,1,376.719,370.125Z" fill="#313131"/>
    <path id="Path_168" data-name="Path 168" d="M405.123,392.1c-1.063-.02-2.076-.875-3.021-1.291-1.552-.684-2.481-.374-4.047.017-2.05.512-2.542-.152-4.293,0-1.485.132-2.727,1.559-4.257,1.553-.01,0-.018,0-.028,0-.056-.015-.113-.026-.169-.043a.882.882,0,0,0-1.007,1.26.9.9,0,0,0,.111.408c1.83,3.386,6.349,4.271,9.87,3.754,2.92-.428,4.989-2.019,7.1-3.929A.891.891,0,0,0,405.123,392.1Z" fill="#a191b2"/>
    <path id="Path_169" data-name="Path 169" d="M430.023,365.652a3.137,3.137,0,0,0-3.147-1.492c-.175-6.447-2.054-12.2-4.292-18.242a24.026,24.026,0,0,0-4.565-8.077c-1.3-1.422-3.524-3.728-5.526-4.387a13.145,13.145,0,0,0-.244-2.56,32.014,32.014,0,0,0-.522-4.891c1.8.566,3.6.926,5.205,2.189a17.569,17.569,0,0,1,3.436,4.319c2.067,3.06,4.372,6.511,4.981,10.229.184,1.127,1.9.649,1.715-.473-.719-4.389-3.574-8.167-5.934-11.789a13.3,13.3,0,0,0-3.845-4.246c-1.875-1.215-4.017-1.51-6.048-2.276-.031-.106-.057-.212-.09-.319-.63-2.079-1.134-4.433-2.864-5.891-.871-.734-2.136.519-1.259,1.258,1.61,1.356,2.131,4.014,2.687,5.931a19.276,19.276,0,0,1,.631,3.336c-1.511-.544-3.736-.171-5.029-.087a87.2,87.2,0,0,0-17.1,2.636,47.459,47.459,0,0,0-14.559,6.239c-1.888,1.306-2.912,3.174-4.474,4.816-1.159,1.219-2.73,2.309-3.345,3.941a.793.793,0,0,0-.039.469,12.058,12.058,0,0,0-.682,1.244c-.485,1.031,1.048,1.935,1.536.9,1.373-2.917,4.349-5.291,6.811-7.279,3.581-2.892,7.74-3.828,12.16-4.579,4.2-.714,8.488-.991,12.71-1.6,1.282-.185,10.969-1.766,12.187-1.424q0,.424,0,.849c0,.031.006.058.008.087a26.289,26.289,0,0,1-11.955,10.195c-4.4,2.031-8.969,3.549-13.34,5.684-7.113,3.476-15.752,6.428-19.1,14.3a.939.939,0,0,0-.071.469c-3.334-1.251-3.51,3.817-2.536,6.426a61.754,61.754,0,0,0,4.261,8.607c1.172,2.058,2.249,4.726,4.444,5.89,1.01.537,1.911-1,.9-1.536-2.89-1.533-4.568-6.878-5.968-9.574a22.267,22.267,0,0,1-2.365-5.4c-.289-1.45-.5-3.622,1.554-2.243.891.6,1.728-.709,1.06-1.4a.8.8,0,0,0,.259-.338c1.724-4.056,5.375-7.154,9.187-9.262,4.227-2.338,8.8-4.278,13.2-6.286,4.381-2,9-3.3,13.161-5.783a25.332,25.332,0,0,0,8.948-9c2.144.833,4.6,3.744,5.724,5.3a33.691,33.691,0,0,1,3.83,8.056,46.221,46.221,0,0,1,3.4,16.429.857.857,0,0,0,.145.488.88.88,0,0,0,1.295.584q2.394.133,1.933,1.644-.094.633-.2,1.265c-.116.733-.228,1.464-.39,2.189a37.363,37.363,0,0,1-1.349,4.689c-1.006,2.745-3.443,8.292-6.56,9.168a.89.89,0,0,0,.473,1.715c2.446-.687,4.25-3.461,5.494-5.569a31.611,31.611,0,0,0,3.4-8.557C429.816,370.779,431.047,367.534,430.023,365.652Zm-24.806-33.62c-5.977.94-11.934,1.778-17.941,2.506a36.836,36.836,0,0,0-10.13,2.417,49.593,49.593,0,0,1,9.116-3.678,75.982,75.982,0,0,1,11.825-2.42c2.39-.368,4.81-.742,7.226-.894a11.719,11.719,0,0,1,3.287-.052,2.429,2.429,0,0,1,1.886,1.507C408.873,331.209,406.622,331.812,405.217,332.032Z" fill="#323232"/>
    <g id="Group_110" data-name="Group 110">
      <g id="Group_108" data-name="Group 108">
        <path id="Path_170" data-name="Path 170" d="M362.644,413.464a2.961,2.961,0,0,1-1.928-.711h0a2.975,2.975,0,0,1-.327-4.189l12.667-14.816a90.749,90.749,0,0,0,5.553-7.521l.554-.842,5.721,4.89-.747.679a90.932,90.932,0,0,0-6.565,6.655L364.9,412.425A2.965,2.965,0,0,1,362.644,413.464Zm-.772-2.064a1.193,1.193,0,0,0,1.68-.131l12.667-14.816a85.161,85.161,0,0,1,5.982-6.131l-2.667-2.28a85.08,85.08,0,0,1-5.126,6.862L361.741,409.72a1.193,1.193,0,0,0,.131,1.68Z" fill="#323232"/>
      </g>
      <g id="Group_109" data-name="Group 109">
        <path id="Path_171" data-name="Path 171" d="M383.923,391.1l-.768-1.6,2.957-1.416a5.183,5.183,0,0,0,1.71-1.314,1.392,1.392,0,0,0-.127-1.979l-3.544-3.03a1.383,1.383,0,0,0-1.95.152,5.2,5.2,0,0,0-1.057,1.924l-.94,3.141-1.7-.51.939-3.141a6.939,6.939,0,0,1,1.385-2.541,3.162,3.162,0,0,1,4.483-.378l3.544,3.031a3.164,3.164,0,0,1,.349,4.457,7,7,0,0,1-2.319,1.793Z" fill="#323232"/>
      </g>
    </g>
  </g>
</svg>
